<svg width="25" height="28" viewBox="0 0 25 28" fill="none" xmlns="http://www.w3.org/2000/svg">
<g filter="url(#filter0_d)">
<path d="M18.766 6.48828C18.5737 6.19994 18.3031 5.97243 17.986 5.83247C17.669 5.6925 17.3185 5.64588 16.9759 5.69808C16.426 5.77642 15.8656 5.66944 15.3832 5.39401C14.9008 5.11859 14.5239 4.6904 14.3118 4.17699C14.0403 3.52 13.4323 3.06969 12.722 3.03402C12.4615 3.02092 12.2005 3.02092 11.94 3.03402C11.225 3.07183 10.6144 3.52773 10.3458 4.19117C10.138 4.70515 9.76531 5.13549 9.28624 5.4145C8.80718 5.69351 8.24895 5.80536 7.69938 5.73246C6.98996 5.63836 6.29215 5.94429 5.90672 6.54887C5.75353 6.78854 5.6138 7.03657 5.4882 7.29179C5.18313 7.91312 5.30129 8.62812 5.72754 9.1734C6.06993 9.61062 6.25694 10.1494 6.25904 10.7047C6.26114 11.2601 6.07821 11.8003 5.73914 12.2401C5.31547 12.7905 5.20203 13.5072 5.51184 14.1307C5.58059 14.2682 5.65406 14.4044 5.73227 14.5393C5.79958 14.6539 5.86948 14.7665 5.94195 14.8771C6.1343 15.1654 6.40488 15.3928 6.72194 15.5328C7.039 15.6728 7.3894 15.7194 7.73203 15.6673C8.28197 15.5888 8.84239 15.6957 9.32481 15.9711C9.80723 16.2466 10.1842 16.6749 10.3961 17.1884C10.6677 17.8453 11.2761 18.2957 11.9859 18.3309C12.2464 18.3444 12.5075 18.3444 12.768 18.3309C13.483 18.2935 14.0936 17.8376 14.3621 17.1742C14.5697 16.6602 14.9424 16.2298 15.4214 15.9508C15.9004 15.6718 16.4586 15.5599 17.0081 15.6329C17.718 15.727 18.4158 15.4211 18.8012 14.8165C18.9543 14.5767 19.0938 14.3285 19.2193 14.0731C19.5248 13.4522 19.4066 12.7372 18.98 12.192C18.6377 11.7546 18.4509 11.2157 18.4489 10.6603C18.4468 10.1049 18.6298 9.56472 18.9688 9.12484C19.3925 8.57484 19.5059 7.85812 19.1957 7.23637C19.1275 7.09887 19.054 6.96265 18.9752 6.82773C18.9082 6.71229 18.8385 6.59914 18.766 6.48828Z" stroke="#C0BEFF" stroke-width="1.32624" stroke-linecap="round" stroke-linejoin="round"/>
<path d="M12.3546 12.7463C13.4942 12.7463 14.418 11.8225 14.418 10.6829C14.418 9.54333 13.4942 8.61954 12.3546 8.61954C11.2151 8.61954 10.2913 9.54333 10.2913 10.6829C10.2913 11.8225 11.2151 12.7463 12.3546 12.7463Z" stroke="#C0BEFF" stroke-width="1.32624" stroke-linecap="round" stroke-linejoin="round"/>
</g>
<defs>
<filter id="filter0_d" x="-2" y="0" width="30" height="30" filterUnits="userSpaceOnUse" color-interpolation-filters="sRGB">
<feFlood flood-opacity="0" result="BackgroundImageFix"/>
<feColorMatrix in="SourceAlpha" type="matrix" values="0 0 0 0 0 0 0 0 0 0 0 0 0 0 0 0 0 0 127 0" result="hardAlpha"/>
<feOffset dy="4"/>
<feGaussianBlur stdDeviation="2"/>
<feComposite in2="hardAlpha" operator="out"/>
<feColorMatrix type="matrix" values="0 0 0 0 0 0 0 0 0 0 0 0 0 0 0 0 0 0 0.25 0"/>
<feBlend mode="normal" in2="BackgroundImageFix" result="effect1_dropShadow"/>
<feBlend mode="normal" in="SourceGraphic" in2="effect1_dropShadow" result="shape"/>
</filter>
</defs>
</svg>
